<?xml version="1.0" encoding="UTF-8"?>
<svg id="Camada_1" data-name="Camada 1" xmlns="http://www.w3.org/2000/svg" viewBox="0 0 569.13 106.58">
  <defs>
    <style>
      .cls-1 {
        fill: #95f20f;
      }

      .cls-2 {
        font-family: JetBrainsMono-Regular, 'JetBrains Mono';
        font-size: 20.05px;
        font-variation-settings: 'wght' 400;
      }

      .cls-2, .cls-3 {
        fill: #fff;
      }
    </style>
  </defs>
  <polygon class="cls-1" points="95.87 28.03 121.99 54.14 144.33 54.14 144.33 29.66 117.9 3.23 21.43 3.23 46.22 28.03 95.87 28.03"/>
  <polygon class="cls-1" points="21.57 32.98 21.57 82.29 45.87 106.58 68.74 106.58 68.74 81.72 45.65 58.63 45.65 32.98 21.57 32.98"/>
  <polygon class="cls-1" points="72.29 58.7 72.29 79.44 99.22 106.37 144.47 106.37 144.47 84.84 118.39 58.76 72.29 58.7"/>
  <g>
    <path class="cls-3" d="M165.13,68.2v-23.56h3.71v2.89h.67c.42-1.03,1.06-1.78,1.93-2.26.87-.48,2.01-.72,3.42-.72h2.79v3.47h-3.04c-1.7,0-3.08.47-4.12,1.42-1.04.95-1.57,2.42-1.57,4.41v14.36h-3.81Z"/>
    <path class="cls-3" d="M189.7,68.87c-1.64,0-3.13-.29-4.48-.87-1.35-.58-2.41-1.41-3.18-2.51-.77-1.09-1.16-2.42-1.16-4s.39-2.93,1.16-3.97c.77-1.04,1.83-1.83,3.18-2.36,1.35-.53,2.86-.79,4.53-.79h7.95v-1.73c0-1.67-.49-2.99-1.47-3.95-.98-.96-2.43-1.45-4.36-1.45s-3.37.46-4.43,1.37-1.78,2.14-2.17,3.69l-3.57-1.16c.39-1.32.99-2.51,1.83-3.59.83-1.08,1.95-1.94,3.35-2.6,1.4-.66,3.08-.99,5.03-.99,3.02,0,5.36.78,7.03,2.34,1.67,1.56,2.51,3.75,2.51,6.58v10.65c0,.96.45,1.45,1.35,1.45h2.17v3.23h-3.32c-1.06,0-1.91-.3-2.55-.89-.64-.59-.96-1.39-.96-2.38v-.24h-.58c-.35.61-.83,1.25-1.42,1.9-.59.66-1.41,1.2-2.43,1.64-1.03.43-2.36.65-4,.65ZM190.13,65.6c2.25,0,4.07-.67,5.47-2,1.4-1.33,2.1-3.2,2.1-5.61v-.53h-7.8c-1.51,0-2.75.33-3.73.99-.98.66-1.47,1.65-1.47,2.96s.51,2.34,1.52,3.08c1.01.74,2.32,1.11,3.93,1.11Z"/>
    <path class="cls-3" d="M213.26,68.2v-20.24h-7.23v-3.32h7.23v-6.02c0-1.28.36-2.3,1.08-3.04.72-.74,1.76-1.11,3.11-1.11h5.93v3.28h-4.87c-.96,0-1.45.48-1.45,1.45v5.44h7.42v3.32h-7.42v20.24h-3.81Z"/>
    <path class="cls-3" d="M236.72,68.87c-1.64,0-3.13-.29-4.48-.87-1.35-.58-2.41-1.41-3.18-2.51-.77-1.09-1.16-2.42-1.16-4s.39-2.93,1.16-3.97c.77-1.04,1.83-1.83,3.18-2.36,1.35-.53,2.86-.79,4.53-.79h7.95v-1.73c0-1.67-.49-2.99-1.47-3.95-.98-.96-2.43-1.45-4.36-1.45s-3.37.46-4.43,1.37-1.78,2.14-2.17,3.69l-3.57-1.16c.39-1.32.99-2.51,1.83-3.59.83-1.08,1.95-1.94,3.35-2.6,1.4-.66,3.08-.99,5.03-.99,3.02,0,5.36.78,7.03,2.34,1.67,1.56,2.51,3.75,2.51,6.58v10.65c0,.96.45,1.45,1.35,1.45h2.17v3.23h-3.32c-1.06,0-1.91-.3-2.55-.89-.64-.59-.96-1.39-.96-2.38v-.24h-.58c-.35.61-.83,1.25-1.42,1.9-.59.66-1.41,1.2-2.43,1.64-1.03.43-2.36.65-4,.65ZM237.16,65.6c2.25,0,4.07-.67,5.47-2,1.4-1.33,2.1-3.2,2.1-5.61v-.53h-7.8c-1.51,0-2.75.33-3.73.99-.98.66-1.47,1.65-1.47,2.96s.51,2.34,1.52,3.08c1.01.74,2.32,1.11,3.93,1.11Z"/>
    <path class="cls-3" d="M267.32,68.87c-2.38,0-4.46-.51-6.26-1.52-1.8-1.01-3.2-2.43-4.19-4.26-1-1.83-1.49-3.95-1.49-6.36v-.58c0-2.44.5-4.58,1.49-6.41,1-1.83,2.38-3.25,4.14-4.26,1.77-1.01,3.79-1.52,6.07-1.52s4.18.47,5.88,1.42c1.7.95,3.04,2.31,4,4.07.96,1.77,1.45,3.84,1.45,6.22v1.73h-19.22c.1,2.54.92,4.52,2.46,5.95,1.54,1.43,3.47,2.14,5.78,2.14,2.02,0,3.58-.47,4.67-1.4,1.09-.93,1.93-2.04,2.51-3.32l3.28,1.59c-.48,1-1.15,1.99-2,2.99-.85,1-1.96,1.83-3.32,2.51-1.37.67-3.11,1.01-5.23,1.01ZM259.22,54.27h15.32c-.13-2.18-.88-3.89-2.24-5.11-1.37-1.22-3.11-1.83-5.23-1.83s-3.92.61-5.3,1.83c-1.38,1.22-2.23,2.92-2.55,5.11Z"/>
    <path class="cls-3" d="M285.05,68.2v-33.73h3.81v33.73h-3.81Z"/>
    <path class="cls-3" d="M306.34,68.87c-2.92,0-5.39-.67-7.4-2.02-2.01-1.35-3.22-3.48-3.64-6.41l3.61-.82c.26,1.54.74,2.75,1.45,3.64.71.88,1.58,1.51,2.63,1.88,1.04.37,2.16.55,3.35.55,1.77,0,3.16-.35,4.19-1.06,1.03-.71,1.54-1.65,1.54-2.84s-.49-2.08-1.47-2.58c-.98-.5-2.32-.91-4.02-1.23l-1.97-.34c-1.51-.26-2.89-.66-4.14-1.2-1.25-.55-2.25-1.28-2.99-2.22-.74-.93-1.11-2.1-1.11-3.52,0-2.12.82-3.77,2.46-4.96,1.64-1.19,3.81-1.78,6.5-1.78s4.83.6,6.48,1.81c1.65,1.2,2.72,2.9,3.2,5.08l-3.57.92c-.29-1.7-.98-2.9-2.07-3.59-1.09-.69-2.44-1.04-4.05-1.04s-2.88.3-3.81.89c-.93.59-1.4,1.47-1.4,2.63s.44,1.95,1.32,2.48c.88.53,2.06.92,3.54,1.18l1.98.34c1.67.29,3.17.68,4.5,1.18,1.33.5,2.39,1.21,3.18,2.14.79.93,1.18,2.15,1.18,3.66,0,2.31-.86,4.1-2.58,5.35-1.72,1.25-4.02,1.88-6.91,1.88Z"/>
    <path class="cls-3" d="M322.24,68.2v-33.73h3.81v13.92h.67c.32-.71.81-1.37,1.47-2,.66-.63,1.51-1.15,2.55-1.57,1.04-.42,2.37-.63,3.97-.63,1.77,0,3.35.38,4.75,1.13,1.4.75,2.51,1.85,3.35,3.28.83,1.43,1.25,3.2,1.25,5.32v14.26h-3.81v-13.97c0-2.34-.59-4.05-1.76-5.11-1.17-1.06-2.75-1.59-4.75-1.59-2.28,0-4.14.74-5.56,2.22-1.43,1.48-2.14,3.68-2.14,6.6v11.85h-3.81Z"/>
    <path class="cls-3" d="M362.66,68.87c-2.38,0-4.47-.5-6.29-1.49-1.81-1-3.23-2.4-4.24-4.22-1.01-1.81-1.52-3.96-1.52-6.43v-.63c0-2.44.51-4.58,1.52-6.41,1.01-1.83,2.42-3.24,4.24-4.24,1.81-1,3.91-1.49,6.29-1.49s4.47.5,6.29,1.49c1.81,1,3.23,2.41,4.24,4.24,1.01,1.83,1.52,3.97,1.52,6.41v.63c0,2.47-.51,4.62-1.52,6.43-1.01,1.82-2.43,3.22-4.24,4.22-1.82,1-3.91,1.49-6.29,1.49ZM362.66,65.45c2.51,0,4.5-.8,6-2.38,1.49-1.59,2.24-3.73,2.24-6.43v-.43c0-2.7-.75-4.84-2.24-6.43s-3.49-2.38-6-2.38-4.46.79-5.97,2.38c-1.51,1.59-2.26,3.73-2.26,6.43v.43c0,2.7.75,4.84,2.26,6.43,1.51,1.59,3.5,2.38,5.97,2.38Z"/>
    <path class="cls-3" d="M381.55,77.83v-33.19h3.71v3.9h.67c.61-1.19,1.6-2.25,2.96-3.18,1.36-.93,3.27-1.4,5.71-1.4,2.02,0,3.88.49,5.56,1.47,1.69.98,3.04,2.37,4.05,4.17,1.01,1.8,1.52,3.97,1.52,6.5v.63c0,2.51-.5,4.67-1.49,6.5-1,1.83-2.34,3.23-4.02,4.19-1.69.96-3.56,1.45-5.61,1.45-1.64,0-3.03-.22-4.17-.65-1.14-.43-2.06-.99-2.77-1.66-.71-.67-1.25-1.36-1.64-2.07h-.67v13.35h-3.81ZM393.59,65.5c2.44,0,4.42-.78,5.95-2.34,1.53-1.56,2.29-3.73,2.29-6.53v-.43c0-2.79-.76-4.97-2.29-6.53-1.53-1.56-3.51-2.34-5.95-2.34s-4.39.78-5.95,2.34-2.34,3.73-2.34,6.53v.43c0,2.79.78,4.97,2.34,6.53,1.56,1.56,3.54,2.34,5.95,2.34Z"/>
    <path class="cls-3" d="M414.5,40.98c-.84,0-1.53-.27-2.1-.82-.56-.55-.84-1.24-.84-2.07s.28-1.57.84-2.12c.56-.55,1.26-.82,2.1-.82s1.53.27,2.07.82c.55.55.82,1.25.82,2.12s-.27,1.53-.82,2.07c-.55.55-1.24.82-2.07.82ZM412.57,68.2v-23.56h3.81v23.56h-3.81Z"/>
    <path class="cls-3" d="M429,68.2v-20.24h-7.23v-3.32h7.23v-6.02c0-1.28.36-2.3,1.08-3.04.72-.74,1.76-1.11,3.11-1.11h5.93v3.28h-4.87c-.96,0-1.45.48-1.45,1.45v5.44h7.42v3.32h-7.42v20.24h-3.81Z"/>
    <path class="cls-3" d="M448.52,77.83v-3.37h13.49c.93,0,1.4-.48,1.4-1.45v-8.58h-.67c-.32.67-.81,1.34-1.47,2-.66.66-1.52,1.19-2.58,1.59-1.06.4-2.39.6-4,.6-1.7,0-3.27-.37-4.7-1.11-1.43-.74-2.55-1.83-3.37-3.28-.82-1.45-1.23-3.21-1.23-5.3v-14.31h3.81v14.02c0,2.31.59,4,1.76,5.06,1.17,1.06,2.75,1.59,4.75,1.59,2.25,0,4.1-.74,5.54-2.22,1.45-1.48,2.17-3.68,2.17-6.6v-11.85h3.81v29.05c0,1.28-.36,2.3-1.08,3.04-.72.74-1.78,1.11-3.16,1.11h-14.45Z"/>
  </g>
  <g>
    <path class="cls-1" d="M477.23,68.87c-.93,0-1.71-.31-2.34-.92-.63-.61-.94-1.4-.94-2.36s.31-1.75.94-2.36c.63-.61,1.4-.92,2.34-.92s1.75.31,2.36.92c.61.61.92,1.4.92,2.36s-.31,1.75-.92,2.36c-.61.61-1.4.92-2.36.92Z"/>
    <path class="cls-1" d="M496.98,68.87c-2.02,0-3.89-.48-5.59-1.45-1.7-.96-3.05-2.36-4.05-4.19-1-1.83-1.49-4-1.49-6.5v-.63c0-2.51.5-4.67,1.49-6.48,1-1.81,2.34-3.21,4.02-4.19,1.69-.98,3.56-1.47,5.61-1.47,1.64,0,3.03.22,4.17.65,1.14.43,2.06.98,2.77,1.64.71.66,1.25,1.36,1.64,2.1h.67v-13.88h3.81v33.73h-3.71v-3.9h-.67c-.64,1.19-1.64,2.25-2.99,3.18-1.35.93-3.24,1.4-5.69,1.4ZM497.99,65.5c2.44,0,4.42-.78,5.95-2.34,1.53-1.56,2.29-3.73,2.29-6.53v-.43c0-2.79-.76-4.97-2.29-6.53-1.53-1.56-3.51-2.34-5.95-2.34s-4.39.78-5.95,2.34-2.34,3.73-2.34,6.53v.43c0,2.79.78,4.97,2.34,6.53,1.56,1.56,3.54,2.34,5.95,2.34Z"/>
    <path class="cls-1" d="M528.83,68.87c-2.38,0-4.46-.51-6.26-1.52-1.8-1.01-3.2-2.43-4.19-4.26-1-1.83-1.49-3.95-1.49-6.36v-.58c0-2.44.5-4.58,1.49-6.41,1-1.83,2.38-3.25,4.14-4.26,1.77-1.01,3.79-1.52,6.07-1.52s4.18.47,5.88,1.42c1.7.95,3.04,2.31,4,4.07.96,1.77,1.45,3.84,1.45,6.22v1.73h-19.22c.1,2.54.92,4.52,2.46,5.95,1.54,1.43,3.47,2.14,5.78,2.14,2.02,0,3.58-.47,4.67-1.4,1.09-.93,1.93-2.04,2.51-3.32l3.28,1.59c-.48,1-1.15,1.99-2,2.99-.85,1-1.96,1.83-3.32,2.51-1.37.67-3.11,1.01-5.23,1.01ZM520.73,54.27h15.32c-.13-2.18-.88-3.89-2.24-5.11-1.37-1.22-3.11-1.83-5.23-1.83s-3.92.61-5.3,1.83c-1.38,1.22-2.23,2.92-2.55,5.11Z"/>
    <path class="cls-1" d="M551.57,68.2l-8.43-23.56h4.05l7.08,20.72h.67l7.08-20.72h4.05l-8.43,23.56h-6.07Z"/>
  </g>
  <text class="cls-2" transform="translate(165.13 99.1)"><tspan x="0" y="0" xml:space="preserve">SHOPIFY   AI  SYSTEM</tspan></text>
  <circle class="cls-1" cx="267.33" cy="92.26" r="2.45"/>
</svg>